<svg xmlns="http://www.w3.org/2000/svg" width="1120" height="430" viewBox="0 0 1120 430">
  <defs><marker id="arr" markerWidth="10" markerHeight="10" refX="9" refY="3" orient="auto"><path d="M0,0 L0,6 L9,3 z" fill="#333"/></marker><style>.st{fill:#fff;stroke:#37474f;stroke-width:2;rx:18}.t{font:700 20px Arial;fill:#111}.s{font:500 14px Arial;fill:#333}.p{stroke:#333;stroke-width:2.8;marker-end:url(#arr);fill:none}.eq{font:600 14px Arial;fill:#0d47a1}</style></defs>
  <rect x="20" y="20" width="1080" height="390" rx="24" fill="#fffdf7" stroke="#cfd8dc"/>
  <text x="50" y="60" class="t">Adaptive Peak Detection State Machine</text>
  <rect x="70" y="120" width="220" height="110" class="st"/><text x="105" y="157" class="t">PK_IDLE</text><text x="92" y="184" class="s">valley/rising start 대기</text><text x="92" y="207" class="eq">y &lt; thr, d1 crosses +</text>
  <rect x="440" y="120" width="240" height="110" class="st"/><text x="480" y="157" class="t">PK_RISING</text><text x="462" y="184" class="s">임계치 이상 상승 구간</text><text x="462" y="207" class="eq">y &gt; thr, d2 changes sign</text>
  <rect x="830" y="120" width="230" height="110" class="st"/><text x="865" y="157" class="t">PK_SMAXED</text><text x="852" y="184" class="s">정점 후보 확정 대기</text><text x="852" y="207" class="eq">d1 + → -, refractory OK</text>
  <path d="M290 175 H440" class="p"/><path d="M680 175 H830" class="p"/><path d="M945 230 C945 315 175 315 175 230" class="p"/>
  <text x="325" y="160" class="s">rising detected</text><text x="705" y="160" class="s">slope maximum</text><text x="500" y="345" class="s">peak confirmed → IBI 계산 → PK_IDLE 복귀</text>
</svg>
